<svg width="800" height="600" xmlns="http://www.w3.org/2000/svg" viewBox="0 0 800 600">
  <defs>
    <linearGradient id="pink" x1="0%" y1="0%" x2="0%" y2="100%">
      <stop offset="0%" style="stop-color:#ff69b4;stop-opacity:1" />
      <stop offset="100%" style="stop-color:#ff1493;stop-opacity:1" />
    </linearGradient>
  </defs>
  
  <!-- Fita rosa clássica - loop "8" com caudas -->
  <g transform="translate(400, 250)">
    <!-- Loop superior completo (formando um "8") -->
    <path d="M -30 -90
             C -45 -90 -55 -85 -55 -75
             C -55 -65 -50 -60 -40 -60
             C -30 -60 -20 -65 -20 -75
             L -20 -85
             C -20 -95 -25 -100 -30 -100
             C -35 -100 -40 -95 -40 -85
             L -40 -75
             L 40 -75
             L 40 -85
             C 40 -95 35 -100 30 -100
             C 25 -100 20 -95 20 -85
             L 20 -75
             C 20 -65 30 -60 40 -60
             C 50 -60 55 -65 55 -75
             C 55 -85 45 -90 30 -90
             Z" 
          fill="url(#pink)"/>
    
    <!-- Cauda esquerda -->
    <rect x="-14" y="-75" width="7" height="140" fill="url(#pink)"/>
    
    <!-- Cauda direita -->
    <rect x="7" y="-75" width="7" height="140" fill="url(#pink)"/>
    
    <!-- Pontas arredondadas -->
    <ellipse cx="-10.5" cy="65" rx="4" ry="12" fill="url(#pink)"/>
    <ellipse cx="10.5" cy="65" rx="4" ry="12" fill="url(#pink)"/>
  </g>
</svg>
